<svg id="visual" viewBox="0 0 900 600" width="900" height="600" xmlns="http://www.w3.org/2000/svg" xmlns:xlink="http://www.w3.org/1999/xlink" version="1.1"><rect width="900" height="600" fill="#f1edde"></rect><g><g transform="translate(390 564)"><path d="M0 -97.5L84.4 -48.7L84.4 48.7L0 97.5L-84.4 48.7L-84.4 -48.7Z" stroke="#f1911d" fill="none" stroke-width="2"></path></g><g transform="translate(873 403)"><path d="M0 -76L65.8 -38L65.8 38L0 76L-65.8 38L-65.8 -38Z" stroke="#f1911d" fill="none" stroke-width="2"></path></g><g transform="translate(288 160)"><path d="M0 -86L74.5 -43L74.5 43L0 86L-74.5 43L-74.5 -43Z" stroke="#f1911d" fill="none" stroke-width="2"></path></g><g transform="translate(458 39)"><path d="M0 -41L35.5 -20.5L35.5 20.5L0 41L-35.5 20.5L-35.5 -20.5Z" stroke="#f1911d" fill="none" stroke-width="2"></path></g><g transform="translate(145 430)"><path d="M0 -58L50.2 -29L50.2 29L0 58L-50.2 29L-50.2 -29Z" stroke="#f1911d" fill="none" stroke-width="2"></path></g><g transform="translate(645 141)"><path d="M0 -95L82.3 -47.5L82.3 47.5L0 95L-82.3 47.5L-82.3 -47.5Z" stroke="#f1911d" fill="none" stroke-width="2"></path></g><g transform="translate(128 49)"><path d="M0 -66L57.2 -33L57.2 33L0 66L-57.2 33L-57.2 -33Z" stroke="#f1911d" fill="none" stroke-width="2"></path></g><g transform="translate(589 586)"><path d="M0 -75L65 -37.5L65 37.5L0 75L-65 37.5L-65 -37.5Z" stroke="#f1911d" fill="none" stroke-width="2"></path></g><g transform="translate(492 265)"><path d="M0 -77L66.7 -38.5L66.7 38.5L0 77L-66.7 38.5L-66.7 -38.5Z" stroke="#f1911d" fill="none" stroke-width="2"></path></g><g transform="translate(883 53)"><path d="M0 -47L40.7 -23.5L40.7 23.5L0 47L-40.7 23.5L-40.7 -23.5Z" stroke="#f1911d" fill="none" stroke-width="2"></path></g><g transform="translate(20 250)"><path d="M0 -37L32 -18.5L32 18.5L0 37L-32 18.5L-32 -18.5Z" stroke="#f1911d" fill="none" stroke-width="2"></path></g></g></svg>